{
  "accessors": [
    {
      "bufferView": 1,
      "componentType": 5126,
      "count": 1981,
      "max": [
        965.4620971679688,
        -332.1082458496094,
        378.99139404296875
      ],
      "min": [
        -703.7032470703125,
        -1728.6221923828125,
        -27.643112182617188
      ],
      "type": "VEC3"
    },
    {
      "bufferView": 1,
      "byteOffset": 23772,
      "componentType": 5126,
      "count": 1981,
      "max": [
        1.0,
        1.0,
        1.0
      ],
      "min": [
        -1.0,
        -0.9949386715888977,
        -0.7105987071990967
      ],
      "type": "VEC3"
    },
    {
      "bufferView": 0,
      "componentType": 5125,
      "count": 4719,
      "type": "SCALAR"
    },
    {
      "bufferView": 1,
      "byteOffset": 47544,
      "componentType": 5126,
      "count": 35453,
      "max": [
        1006.5516967773438,
        -318.43084716796875,
        393.81146240234375
      ],
      "min": [
        -750.824951171875,
        -1730.8560791015625,
        -44.56107711791992
      ],
      "type": "VEC3"
    },
    {
      "bufferView": 1,
      "byteOffset": 472980,
      "componentType": 5126,
      "count": 35453,
      "max": [
        1.0,
        1.0,
        1.0
      ],
      "min": [
        -1.0,
        -1.0,
        -1.0
      ],
      "type": "VEC3"
    },
    {
      "bufferView": 0,
      "byteOffset": 18876,
      "componentType": 5125,
      "count": 96822,
      "type": "SCALAR"
    },
    {
      "bufferView": 1,
      "byteOffset": 898416,
      "componentType": 5126,
      "count": 4752,
      "max": [
        977.1941528320313,
        -318.43084716796875,
        387.9845886230469
      ],
      "min": [
        -715.3184814453125,
        -1699.17041015625,
        -32.2271842956543
      ],
      "type": "VEC3"
    },
    {
      "bufferView": 1,
      "byteOffset": 955440,
      "componentType": 5126,
      "count": 4752,
      "max": [
        0.9979063868522644,
        0.9916256070137024,
        1.0
      ],
      "min": [
        -0.997906506061554,
        -0.9992466568946838,
        -0.9979087114334106
      ],
      "type": "VEC3"
    },
    {
      "bufferView": 0,
      "byteOffset": 406164,
      "componentType": 5125,
      "count": 16200,
      "type": "SCALAR"
    },
    {
      "bufferView": 1,
      "byteOffset": 1012464,
      "componentType": 5126,
      "count": 2508,
      "max": [
        892.7570190429688,
        -329.2957458496094,
        369.05059814453125
      ],
      "min": [
        -637.0830688476563,
        -1492.791259765625,
        -8.821627616882324
      ],
      "type": "VEC3"
    },
    {
      "bufferView": 1,
      "byteOffset": 1042560,
      "componentType": 5126,
      "count": 2508,
      "max": [
        1.0,
        1.0,
        1.0
      ],
      "min": [
        -1.0,
        -0.35322320461273193,
        -1.0
      ],
      "type": "VEC3"
    },
    {
      "bufferView": 0,
      "byteOffset": 470964,
      "componentType": 5125,
      "count": 7416,
      "type": "SCALAR"
    },
    {
      "bufferView": 1,
      "byteOffset": 1072656,
      "componentType": 5126,
      "count": 2784,
      "max": [
        877.775634765625,
        -318.43084716796875,
        357.1847839355469
      ],
      "min": [
        -621.6237182617188,
        -1473.666259765625,
        3.449608325958252
      ],
      "type": "VEC3"
    },
    {
      "bufferView": 1,
      "byteOffset": 1106064,
      "componentType": 5126,
      "count": 2784,
      "max": [
        0.9978086352348328,
        0.9992466568946838,
        0.9979087114334106
      ],
      "min": [
        -0.9978086352348328,
        -0.42439961433410645,
        -0.9979087114334106
      ],
      "type": "VEC3"
    },
    {
      "bufferView": 0,
      "byteOffset": 500628,
      "componentType": 5125,
      "count": 12600,
      "type": "SCALAR"
    },
    {
      "bufferView": 1,
      "byteOffset": 1139472,
      "componentType": 5126,
      "count": 84,
      "max": [
        867.5630493164063,
        -318.43084716796875,
        353.06146240234375
      ],
      "min": [
        -643.7330322265625,
        -1728.640380859375,
        4.354842185974121
      ],
      "type": "VEC3"
    },
    {
      "bufferView": 0,
      "byteOffset": 551028,
      "componentType": 5125,
      "count": 120,
      "type": "SCALAR"
    }
  ],
  "asset": {
    "extras": {
      "author": "Designed By Jonathan (https://sketchfab.com/designedbyjonathan)",
      "license": "CC-BY-4.0 (http://creativecommons.org/licenses/by/4.0/)",
      "source": "https://sketchfab.com/3d-models/low-poly-ww2-fighter-planes-178d997fe379407eaa5c710f910f5d5a",
      "title": "Low Poly WW2 Fighter Planes"
    },
    "generator": "Sketchfab-12.65.0",
    "version": "2.0"
  },
  "bufferViews": [
    {
      "buffer": 0,
      "byteLength": 551508,
      "name": "floatBufferViews",
      "target": 34963
    },
    {
      "buffer": 0,
      "byteLength": 1140480,
      "byteOffset": 551508,
      "byteStride": 12,
      "name": "floatBufferViews",
      "target": 34962
    }
  ],
  "buffers": [
    {
      "byteLength": 1691988,
      "uri": "scene.bin"
    }
  ],
  "materials": [
    {
      "name": "material_3",
      "pbrMetallicRoughness": {
        "baseColorFactor": [
          0.929412,
          0.960784,
          0.996078,
          1.0
        ],
        "metallicFactor": 0.0,
        "roughnessFactor": 0.6
      }
    },
    {
      "name": "material_1",
      "pbrMetallicRoughness": {
        "baseColorFactor": [
          0.207843,
          0.435294,
          0.0588235,
          1.0
        ],
        "metallicFactor": 0.0,
        "roughnessFactor": 0.6
      }
    },
    {
      "name": "black",
      "pbrMetallicRoughness": {
        "baseColorFactor": [
          0.0,
          0.0,
          0.0,
          1.0
        ],
        "metallicFactor": 0.0,
        "roughnessFactor": 0.6
      }
    },
    {
      "name": "material_4",
      "pbrMetallicRoughness": {
        "baseColorFactor": [
          0.101961,
          0.258823,
          0.0078431,
          1.0
        ],
        "metallicFactor": 0.0,
        "roughnessFactor": 0.6
      }
    },
    {
      "name": "material_2",
      "pbrMetallicRoughness": {
        "baseColorFactor": [
          0.854902,
          0.0,
          0.113725,
          1.0
        ],
        "metallicFactor": 0.0,
        "roughnessFactor": 0.6
      }
    },
    {
      "name": "edge_color5311115255",
      "pbrMetallicRoughness": {
        "metallicFactor": 0.0,
        "roughnessFactor": 0.6
      }
    }
  ],
  "meshes": [
    {
      "name": "Material3",
      "primitives": [
        {
          "attributes": {
            "NORMAL": 1,
            "POSITION": 0
          },
          "indices": 2,
          "material": 0,
          "mode": 4
        }
      ]
    },
    {
      "name": "Material2",
      "primitives": [
        {
          "attributes": {
            "NORMAL": 4,
            "POSITION": 3
          },
          "indices": 5,
          "material": 1,
          "mode": 4
        }
      ]
    },
    {
      "name": "Material3",
      "primitives": [
        {
          "attributes": {
            "NORMAL": 7,
            "POSITION": 6
          },
          "indices": 8,
          "material": 2,
          "mode": 4
        }
      ]
    },
    {
      "name": "Material3",
      "primitives": [
        {
          "attributes": {
            "NORMAL": 10,
            "POSITION": 9
          },
          "indices": 11,
          "material": 3,
          "mode": 4
        }
      ]
    },
    {
      "name": "Material2",
      "primitives": [
        {
          "attributes": {
            "NORMAL": 13,
            "POSITION": 12
          },
          "indices": 14,
          "material": 4,
          "mode": 4
        }
      ]
    },
    {
      "name": "Material2",
      "primitives": [
        {
          "attributes": {
            "POSITION": 15
          },
          "indices": 16,
          "material": 5,
          "mode": 1
        }
      ]
    }
  ],
  "nodes": [
    {
      "children": [
        1
      ],
      "matrix": [
        1.0,
        0.0,
        0.0,
        0.0,
        0.0,
        -0.18862976133823373,
        -0.9820482730865479,
        0.0,
        0.0,
        0.9820482730865479,
        -0.18862976133823373,
        0.0,
        0.0,
        -144.88612365722656,
        46.28560638427731,
        1.0
      ],
      "name": "Sketchfab_model"
    },
    {
      "children": [
        2,
        3,
        4,
        5,
        6,
        7
      ],
      "name": "Collada visual scene group"
    },
    {
      "mesh": 0,
      "name": "Material3"
    },
    {
      "mesh": 1,
      "name": "Material2"
    },
    {
      "mesh": 2,
      "name": "Material3"
    },
    {
      "mesh": 3,
      "name": "Material3"
    },
    {
      "mesh": 4,
      "name": "Material2"
    },
    {
      "mesh": 5,
      "name": "Material2"
    }
  ],
  "scene": 0,
  "scenes": [
    {
      "name": "Sketchfab_Scene",
      "nodes": [
        0
      ]
    }
  ]
}
