{
  "accessors": [
    {
      "bufferView": 2,
      "componentType": 5126,
      "count": 95,
      "max": [
        -0.25304508209228516,
        1.3483941555023193,
        5.0810065269470215
      ],
      "min": [
        -0.9977225065231323,
        0.30359014868736267,
        -2.2378411293029785
      ],
      "type": "VEC3"
    },
    {
      "bufferView": 2,
      "byteOffset": 1140,
      "componentType": 5126,
      "count": 95,
      "max": [
        0.9975558519363403,
        0.8232645392417908,
        0.6102777719497681
      ],
      "min": [
        0.3311420679092407,
        -0.8780023455619812,
        -0.34562525153160095
      ],
      "type": "VEC3"
    },
    {
      "bufferView": 1,
      "componentType": 5126,
      "count": 95,
      "max": [
        0.625,
        0.9380394816398621
      ],
      "min": [
        0.375,
        0.0
      ],
      "type": "VEC2"
    },
    {
      "bufferView": 0,
      "componentType": 5125,
      "count": 141,
      "type": "SCALAR"
    },
    {
      "bufferView": 2,
      "byteOffset": 2280,
      "componentType": 5126,
      "count": 708,
      "max": [
        1.289797067642212,
        4.90196418762207,
        5.08100700378418
      ],
      "min": [
        -1.1118760108947754,
        -3.276522636413574,
        -2.2378416061401367
      ],
      "type": "VEC3"
    },
    {
      "bufferView": 2,
      "byteOffset": 10776,
      "componentType": 5126,
      "count": 708,
      "max": [
        0.9997859597206116,
        0.9990986585617065,
        1.0
      ],
      "min": [
        -0.9997859597206116,
        -0.9999870657920837,
        -1.0
      ],
      "type": "VEC3"
    },
    {
      "bufferView": 1,
      "byteOffset": 760,
      "componentType": 5126,
      "count": 708,
      "max": [
        0.875,
        1.0
      ],
      "min": [
        0.125,
        0.0
      ],
      "type": "VEC2"
    },
    {
      "bufferView": 0,
      "byteOffset": 564,
      "componentType": 5125,
      "count": 1077,
      "type": "SCALAR"
    },
    {
      "bufferView": 2,
      "byteOffset": 19272,
      "componentType": 5126,
      "count": 32,
      "max": [
        0.5257999300956726,
        1.2385503053665161,
        1.2501572370529175
      ],
      "min": [
        0.020722242072224617,
        0.30497872829437256,
        0.2647477686405182
      ],
      "type": "VEC3"
    },
    {
      "bufferView": 2,
      "byteOffset": 19656,
      "componentType": 5126,
      "count": 32,
      "max": [
        -0.4502055048942566,
        0.8853758573532104,
        0.4905254542827606
      ],
      "min": [
        -0.9944947957992554,
        -0.8139679431915283,
        -0.31203076243400574
      ],
      "type": "VEC3"
    },
    {
      "bufferView": 1,
      "byteOffset": 6424,
      "componentType": 5126,
      "count": 32,
      "max": [
        0.3750000298023224,
        0.5717121958732605
      ],
      "min": [
        0.3749999701976776,
        0.1782878041267395
      ],
      "type": "VEC2"
    },
    {
      "bufferView": 0,
      "byteOffset": 4872,
      "componentType": 5125,
      "count": 54,
      "type": "SCALAR"
    },
    {
      "bufferView": 2,
      "byteOffset": 20040,
      "componentType": 5126,
      "count": 332,
      "max": [
        0.8261987566947937,
        1.6864677667617798,
        -1.8322988748550415
      ],
      "min": [
        -1.5484294891357422,
        -0.5448687672615051,
        -2.708950996398926
      ],
      "type": "VEC3"
    },
    {
      "bufferView": 2,
      "byteOffset": 24024,
      "componentType": 5126,
      "count": 332,
      "max": [
        0.9985215663909912,
        0.9880030155181885,
        1.0
      ],
      "min": [
        -0.9935422539710999,
        -0.9881359338760376,
        -1.0
      ],
      "type": "VEC3"
    },
    {
      "bufferView": 1,
      "byteOffset": 6680,
      "componentType": 5126,
      "count": 332,
      "max": [
        1.0,
        1.0
      ],
      "min": [
        2.9802322387695313e-08,
        0.0
      ],
      "type": "VEC2"
    },
    {
      "bufferView": 0,
      "byteOffset": 5088,
      "componentType": 5125,
      "count": 510,
      "type": "SCALAR"
    }
  ],
  "asset": {
    "extras": {
      "author": "Wersaus33 (https://sketchfab.com/wersaus33)",
      "license": "CC-BY-4.0 (http://creativecommons.org/licenses/by/4.0/)",
      "source": "https://sketchfab.com/3d-models/f4u-corsair-low-poly-cb11ebb220454ae1b72d913a5bd9b1d0",
      "title": "F4U Corsair - Low Poly"
    },
    "generator": "Sketchfab-15.5.0",
    "version": "2.0"
  },
  "bufferViews": [
    {
      "buffer": 0,
      "byteLength": 7128,
      "name": "floatBufferViews",
      "target": 34963
    },
    {
      "buffer": 0,
      "byteLength": 9336,
      "byteOffset": 7128,
      "byteStride": 8,
      "name": "floatBufferViews",
      "target": 34962
    },
    {
      "buffer": 0,
      "byteLength": 28008,
      "byteOffset": 16464,
      "byteStride": 12,
      "name": "floatBufferViews",
      "target": 34962
    }
  ],
  "buffers": [
    {
      "byteLength": 44472,
      "uri": "scene.bin"
    }
  ],
  "materials": [
    {
      "doubleSided": true,
      "name": "Chassis_white",
      "pbrMetallicRoughness": {
        "baseColorFactor": [
          0.8,
          0.8,
          0.8,
          1.0
        ],
        "metallicFactor": 0.32152478940888196,
        "roughnessFactor": 0.44685545708329777
      }
    },
    {
      "doubleSided": true,
      "name": "Chassis",
      "pbrMetallicRoughness": {
        "baseColorFactor": [
          0.198741,
          0.235297,
          0.367238,
          1.0
        ],
        "metallicFactor": 0.3337153027513988,
        "roughnessFactor": 0.4163791737270057
      }
    },
    {
      "doubleSided": true,
      "name": "Glass",
      "pbrMetallicRoughness": {
        "baseColorFactor": [
          0.8,
          0.8,
          0.8,
          1.0
        ],
        "roughnessFactor": 0.0
      }
    },
    {
      "doubleSided": true,
      "name": "Black",
      "pbrMetallicRoughness": {
        "baseColorFactor": [
          0.0,
          0.0,
          0.0,
          1.0
        ],
        "metallicFactor": 0.6262876229718033,
        "roughnessFactor": 0.5199985371383989
      }
    }
  ],
  "meshes": [
    {
      "name": "Cube.001_Chassis_white_0",
      "primitives": [
        {
          "attributes": {
            "NORMAL": 1,
            "POSITION": 0,
            "TEXCOORD_0": 2
          },
          "indices": 3,
          "material": 0,
          "mode": 4
        }
      ]
    },
    {
      "name": "Cube.001_Chassis_0",
      "primitives": [
        {
          "attributes": {
            "NORMAL": 5,
            "POSITION": 4,
            "TEXCOORD_0": 6
          },
          "indices": 7,
          "material": 1,
          "mode": 4
        }
      ]
    },
    {
      "name": "Cube.001_Glass_0",
      "primitives": [
        {
          "attributes": {
            "NORMAL": 9,
            "POSITION": 8,
            "TEXCOORD_0": 10
          },
          "indices": 11,
          "material": 2,
          "mode": 4
        }
      ]
    },
    {
      "name": "Cube.001_Black_0",
      "primitives": [
        {
          "attributes": {
            "NORMAL": 13,
            "POSITION": 12,
            "TEXCOORD_0": 14
          },
          "indices": 15,
          "material": 3,
          "mode": 4
        }
      ]
    }
  ],
  "nodes": [
    {
      "children": [
        1
      ],
      "matrix": [
        1.0,
        -1.6081226229577292e-16,
        -3.5707495248565405e-32,
        0.0,
        0.0,
        2.220446049250313e-16,
        -1.0,
        0.0,
        1.6081226229577292e-16,
        1.0,
        2.220446049250313e-16,
        0.0,
        0.0,
        0.0,
        0.0,
        1.0
      ],
      "name": "Sketchfab_model"
    },
    {
      "children": [
        2
      ],
      "matrix": [
        0.009999999776482582,
        0.0,
        0.0,
        0.0,
        0.0,
        0.0,
        0.009999999776482582,
        0.0,
        0.0,
        -0.009999999776482582,
        0.0,
        0.0,
        0.0,
        0.0,
        0.0,
        1.0
      ],
      "name": "F4U.fbx"
    },
    {
      "children": [
        3
      ],
      "name": "RootNode"
    },
    {
      "children": [
        4,
        5,
        6,
        7
      ],
      "matrix": [
        -1.0504437097165503e-05,
        240.31349910205935,
        -17.567300578708288,
        0.0,
        -4.5964879707133516e-05,
        -17.497694232526957,
        -239.36131270688225,
        0.0,
        -240.95475769042503,
        -7.111987450885469e-06,
        4.67907687358039e-05,
        0.0,
        142.01075744628906,
        117.72677612304688,
        178.5686798095703,
        1.0
      ],
      "name": "Cube.001"
    },
    {
      "mesh": 0,
      "name": "Cube.001_Chassis_white_0"
    },
    {
      "mesh": 1,
      "name": "Cube.001_Chassis_0"
    },
    {
      "mesh": 2,
      "name": "Cube.001_Glass_0"
    },
    {
      "mesh": 3,
      "name": "Cube.001_Black_0"
    }
  ],
  "scene": 0,
  "scenes": [
    {
      "name": "Sketchfab_Scene",
      "nodes": [
        0
      ]
    }
  ]
}
